<svg width="21" height="21" viewBox="0 0 21 21" fill="none" xmlns="http://www.w3.org/2000/svg">
<path d="M10.5 19.0313C8.81268 19.0313 7.16325 18.538 5.7603 17.6139C4.35734 16.6897 3.26387 15.3762 2.61816 13.8394C1.97245 12.3026 1.8035 10.6116 2.13268 8.98011C2.46186 7.34866 3.27438 5.85008 4.4675 4.67387C5.66062 3.49766 7.18074 2.69665 8.83564 2.37213C10.4905 2.04762 12.2059 2.21417 13.7648 2.85073C15.3237 3.48729 16.6561 4.56527 17.5935 5.94834C18.5309 7.33142 19.0313 8.95748 19.0313 10.6209C19.0313 12.8515 18.1324 14.9907 16.5325 16.5679C14.9326 18.1452 12.7626 19.0313 10.5 19.0313ZM10.5 3.50443C9.07227 3.50443 7.6766 3.9218 6.48948 4.70377C5.30236 5.48574 4.37712 6.59718 3.83075 7.89754C3.28438 9.1979 3.14142 10.6288 3.41996 12.0092C3.6985 13.3897 4.38602 14.6577 5.39558 15.653C6.40514 16.6482 7.6914 17.326 9.0917 17.6006C10.492 17.8752 11.9434 17.7343 13.2625 17.1956C14.5816 16.657 15.709 15.7449 16.5022 14.5746C17.2954 13.4043 17.7188 12.0284 17.7188 10.6209C17.7188 8.73349 16.9582 6.92339 15.6044 5.58879C14.2507 4.2542 12.4145 3.50443 10.5 3.50443Z" fill="#000"/>
<path d="M10.5 15.1495C10.326 15.1495 10.159 15.0814 10.036 14.9601C9.91289 14.8387 9.84375 14.6742 9.84375 14.5026V6.73918C9.84375 6.5676 9.91289 6.40305 10.036 6.28172C10.159 6.16039 10.326 6.09223 10.5 6.09223C10.674 6.09223 10.841 6.16039 10.964 6.28172C11.0871 6.40305 11.1562 6.5676 11.1562 6.73918V14.5026C11.1562 14.6742 11.0871 14.8387 10.964 14.9601C10.841 15.0814 10.674 15.1495 10.5 15.1495Z" fill="#000"/>
<path d="M14.4375 11.2678H6.5625C6.38845 11.2678 6.22153 11.1997 6.09846 11.0784C5.97539 10.957 5.90625 10.7925 5.90625 10.6209C5.90625 10.4493 5.97539 10.2848 6.09846 10.1634C6.22153 10.0421 6.38845 9.97394 6.5625 9.97394H14.4375C14.6115 9.97394 14.7785 10.0421 14.9015 10.1634C15.0246 10.2848 15.0938 10.4493 15.0938 10.6209C15.0938 10.7925 15.0246 10.957 14.9015 11.0784C14.7785 11.1997 14.6115 11.2678 14.4375 11.2678Z" fill="#000"/>
</svg>
