<svg width="47" height="46" viewBox="0 0 47 46" fill="none" xmlns="http://www.w3.org/2000/svg">
<path d="M43.9421 42.9219V9.67969L41.7601 7.45313H33.1851V42.9219H31.271V0.851562H5.2398L3.05776 3.07812V42.9219H0.875732V45.1484H46.1242V42.9219H43.9421ZM36.6304 13.1562H40.9562V17.5703H36.6304V13.1562ZM36.6304 19.7969H40.9562V24.2109H36.6304V19.7969ZM36.6304 26.4375H40.9562V30.8516H36.6304V26.4375ZM36.6304 33.1953H40.9562V37.6094H36.6304V33.1953ZM16.0734 42.6875V31.6328H24.725V42.6875H16.0734V42.6875ZM23.1937 4.71875H27.5195V9.13281H23.1937V4.71875V4.71875ZM23.1937 11.3203H27.5195V15.7344H23.1937V11.3203V11.3203ZM23.1937 18H27.5195V22.4141H23.1937V18V18ZM23.1937 24.7578H27.5195V29.1719H23.1937V24.7578V24.7578ZM14.5421 4.71875H18.8679V9.13281H14.5421V4.71875ZM14.5421 11.3203H18.8679V15.7344H14.5421V11.3203V11.3203ZM14.5421 18H18.8679V22.4141H14.5421V18V18ZM14.5421 24.7578H18.8679V29.1719H14.5421V24.7578ZM5.8523 4.71875H10.1781V9.13281H5.8523V4.71875ZM5.8523 11.3203H10.1781V15.7344H5.8523V11.3203V11.3203ZM5.8523 18H10.1781V22.4141H5.8523V18V18ZM5.8523 24.7578H10.1781V29.1719H5.8523V24.7578Z" fill="#F9FAFC"/>
</svg>
