<svg width="26" height="26" viewBox="0 0 26 26" fill="none" xmlns="http://www.w3.org/2000/svg">
<g clip-path="url(#clip0_41_144)">
<path d="M13 0C9.55219 0 6.24558 1.36964 3.80761 3.80761C1.36964 6.24558 0 9.55219 0 13C0 16.4478 1.36964 19.7544 3.80761 22.1924C6.24558 24.6304 9.55219 26 13 26C16.4478 26 19.7544 24.6304 22.1924 22.1924C24.6304 19.7544 26 16.4478 26 13C26 9.55219 24.6304 6.24558 22.1924 3.80761C19.7544 1.36964 16.4478 0 13 0V0ZM16.8253 20.5497L15.6764 21.6986L6.97613 13L15.6764 4.29975L16.8253 5.44863L9.27387 13L16.8253 20.5497Z" fill="#FCF9F9"/>
</g>
<defs>
<clipPath id="clip0_41_144">
<rect width="26" height="26" fill="white"/>
</clipPath>
</defs>
</svg>
