<svg width="40" height="28" viewBox="0 0 40 28" fill="none" xmlns="http://www.w3.org/2000/svg">
<path fill-rule="evenodd" clip-rule="evenodd" d="M35.8333 27.3333H4.16659C3.28253 27.3333 2.43468 26.9821 1.80956 26.357C1.18444 25.7319 0.833252 24.8841 0.833252 24V4C0.833252 3.11594 1.18444 2.2681 1.80956 1.64297C2.43468 1.01785 3.28253 0.666664 4.16659 0.666664H35.8333C36.7173 0.666664 37.5652 1.01785 38.1903 1.64297C38.8154 2.2681 39.1666 3.11594 39.1666 4V24C39.1666 24.8841 38.8154 25.7319 38.1903 26.357C37.5652 26.9821 36.7173 27.3333 35.8333 27.3333ZM2.49992 11.5H37.4999V8.16666H2.49992V11.5ZM37.4999 4C37.4999 3.55797 37.3243 3.13405 37.0118 2.82149C36.6992 2.50893 36.2753 2.33333 35.8333 2.33333H4.16659C3.72456 2.33333 3.30063 2.50893 2.98807 2.82149C2.67551 3.13405 2.49992 3.55797 2.49992 4V6.5H37.4999V4ZM37.4999 13.1667H2.49992V24C2.49992 24.442 2.67551 24.8659 2.98807 25.1785C3.30063 25.4911 3.72456 25.6667 4.16659 25.6667H35.8333C36.2753 25.6667 36.6992 25.4911 37.0118 25.1785C37.3243 24.8659 37.4999 24.442 37.4999 24V13.1667ZM21.6666 18.1667H18.3333C18.1122 18.1667 17.9003 18.0789 17.744 17.9226C17.5877 17.7663 17.4999 17.5543 17.4999 17.3333C17.4999 17.1123 17.5877 16.9004 17.744 16.7441C17.9003 16.5878 18.1122 16.5 18.3333 16.5H21.6666C21.8876 16.5 22.0996 16.5878 22.2558 16.7441C22.4121 16.9004 22.4999 17.1123 22.4999 17.3333C22.4999 17.5543 22.4121 17.7663 22.2558 17.9226C22.0996 18.0789 21.8876 18.1667 21.6666 18.1667ZM14.1666 18.1667H6.66659C6.44557 18.1667 6.23361 18.0789 6.07733 17.9226C5.92105 17.7663 5.83325 17.5543 5.83325 17.3333C5.83325 17.1123 5.92105 16.9004 6.07733 16.7441C6.23361 16.5878 6.44557 16.5 6.66659 16.5H14.1666C14.3876 16.5 14.5996 16.5878 14.7558 16.7441C14.9121 16.9004 14.9999 17.1123 14.9999 17.3333C14.9999 17.5543 14.9121 17.7663 14.7558 17.9226C14.5996 18.0789 14.3876 18.1667 14.1666 18.1667ZM6.66659 20.6667H11.6666C11.8876 20.6667 12.0996 20.7545 12.2558 20.9107C12.4121 21.067 12.4999 21.279 12.4999 21.5C12.4999 21.721 12.4121 21.933 12.2558 22.0893C12.0996 22.2455 11.8876 22.3333 11.6666 22.3333H6.66659C6.44557 22.3333 6.23361 22.2455 6.07733 22.0893C5.92105 21.933 5.83325 21.721 5.83325 21.5C5.83325 21.279 5.92105 21.067 6.07733 20.9107C6.23361 20.7545 6.44557 20.6667 6.66659 20.6667Z" fill="#FC6F27"/>
</svg>
