<svg width="11" height="11" viewBox="0 0 11 11" fill="none" xmlns="http://www.w3.org/2000/svg">
<path d="M5.5 0.6875C2.84238 0.6875 0.6875 2.84238 0.6875 5.5C0.6875 8.15762 2.84238 10.3125 5.5 10.3125C8.15762 10.3125 10.3125 8.15762 10.3125 5.5C10.3125 2.84238 8.15762 0.6875 5.5 0.6875ZM7.27676 7.32832L6.56777 7.3251L5.5 6.05215L4.4333 7.32402L3.72324 7.32725C3.67598 7.32725 3.6373 7.28965 3.6373 7.24131C3.6373 7.2209 3.64482 7.20156 3.65771 7.18545L5.05527 5.52041L3.65771 3.85645C3.64473 3.8407 3.63753 3.82099 3.6373 3.80059C3.6373 3.75332 3.67598 3.71465 3.72324 3.71465L4.4333 3.71787L5.5 4.99082L6.5667 3.71895L7.27568 3.71572C7.32295 3.71572 7.36162 3.75332 7.36162 3.80166C7.36162 3.82207 7.3541 3.84141 7.34121 3.85752L5.9458 5.52148L7.34229 7.18652C7.35518 7.20264 7.3627 7.22197 7.3627 7.24238C7.3627 7.28965 7.32402 7.32832 7.27676 7.32832Z" fill="#FC6F27"/>
</svg>
