<svg width="38" height="40" viewBox="0 0 38 40" fill="none" xmlns="http://www.w3.org/2000/svg">
<path d="M31.2142 22.1428V32.857C31.2142 33.2439 31.0799 33.5788 30.8113 33.8615C30.5427 34.1442 30.2246 34.2856 29.857 34.2856H21.7142V25.7142H16.2856V34.2856H8.14274C7.77518 34.2856 7.4571 34.1442 7.1885 33.8615C6.91989 33.5788 6.78559 33.2439 6.78559 32.857V22.1428C6.78559 22.1279 6.78913 22.1056 6.7962 22.0758C6.80327 22.046 6.8068 22.0237 6.8068 22.0088L18.9999 11.4285L31.193 22.0088C31.2071 22.0386 31.2142 22.0832 31.2142 22.1428ZM35.943 20.6026L34.6282 22.2544C34.5151 22.3883 34.3667 22.4701 34.1829 22.4999H34.1193C33.9355 22.4999 33.7871 22.4478 33.674 22.3436L18.9999 9.46418L4.32577 22.3436C4.15613 22.4627 3.98649 22.5148 3.81684 22.4999C3.63306 22.4701 3.48463 22.3883 3.37153 22.2544L2.0568 20.6026C1.9437 20.4538 1.89423 20.2789 1.90836 20.078C1.9225 19.8771 2.00025 19.7172 2.14162 19.5981L17.3883 6.22757C17.8407 5.84067 18.3779 5.64722 18.9999 5.64722C19.6219 5.64722 20.1591 5.84067 20.6115 6.22757L25.7856 10.7811V6.42847C25.7856 6.22013 25.8492 6.049 25.9764 5.91507C26.1037 5.78115 26.2662 5.71418 26.4642 5.71418H30.5356C30.7335 5.71418 30.8961 5.78115 31.0233 5.91507C31.1505 6.049 31.2142 6.22013 31.2142 6.42847V15.5356L35.8581 19.5981C35.9995 19.7172 36.0773 19.8771 36.0914 20.078C36.1055 20.2789 36.0561 20.4538 35.943 20.6026Z" fill="#FC6F27"/>
</svg>
