<svg width="21" height="21" viewBox="0 0 21 21" fill="none" xmlns="http://www.w3.org/2000/svg">
<path d="M10.5 19.0313C8.81268 19.0313 7.16325 18.5309 5.7603 17.5935C4.35734 16.6561 3.26387 15.3237 2.61816 13.7648C1.97245 12.2059 1.8035 10.4905 2.13268 8.83564C2.46186 7.18074 3.27438 5.66062 4.4675 4.4675C5.66062 3.27438 7.18074 2.46186 8.83564 2.13268C10.4905 1.8035 12.2059 1.97245 13.7648 2.61816C15.3237 3.26387 16.6561 4.35734 17.5935 5.7603C18.5309 7.16325 19.0313 8.81268 19.0313 10.5C19.0313 12.7626 18.1324 14.9326 16.5325 16.5325C14.9326 18.1324 12.7626 19.0313 10.5 19.0313ZM10.5 3.28125C9.07227 3.28125 7.6766 3.70463 6.48948 4.49783C5.30236 5.29104 4.37712 6.41845 3.83075 7.73751C3.28438 9.05656 3.14142 10.508 3.41996 11.9083C3.6985 13.3086 4.38602 14.5949 5.39558 15.6044C6.40514 16.614 7.6914 17.3015 9.0917 17.58C10.492 17.8586 11.9434 17.7156 13.2625 17.1693C14.5816 16.6229 15.709 15.6976 16.5022 14.5105C17.2954 13.3234 17.7188 11.9277 17.7188 10.5C17.7188 8.58547 16.9582 6.74935 15.6044 5.39558C14.2507 4.0418 12.4145 3.28125 10.5 3.28125Z" fill="#FC6F27"/>
<path d="M14.4375 11.1562H6.5625C6.38845 11.1562 6.22153 11.0871 6.09846 10.964C5.97539 10.841 5.90625 10.674 5.90625 10.5C5.90625 10.326 5.97539 10.159 6.09846 10.036C6.22153 9.91289 6.38845 9.84375 6.5625 9.84375H14.4375C14.6115 9.84375 14.7785 9.91289 14.9015 10.036C15.0246 10.159 15.0938 10.326 15.0938 10.5C15.0938 10.674 15.0246 10.841 14.9015 10.964C14.7785 11.0871 14.6115 11.1562 14.4375 11.1562Z" fill="#FC6F27"/>
</svg>
