<svg width="26" height="26" viewBox="0 0 26 26" fill="none" xmlns="http://www.w3.org/2000/svg">
<path d="M10.5625 13C10.5625 14.3439 11.6561 15.4375 13 15.4375C14.3439 15.4375 15.4375 14.3439 15.4375 13C15.4375 11.6561 14.3439 10.5625 13 10.5625C11.6561 10.5625 10.5625 11.6561 10.5625 13ZM10.5625 21.125C10.5625 22.4689 11.6561 23.5625 13 23.5625C14.3439 23.5625 15.4375 22.4689 15.4375 21.125C15.4375 19.7811 14.3439 18.6875 13 18.6875C11.6561 18.6875 10.5625 19.7811 10.5625 21.125ZM10.5625 4.875C10.5625 6.21887 11.6561 7.3125 13 7.3125C14.3439 7.3125 15.4375 6.21887 15.4375 4.875C15.4375 3.53112 14.3439 2.4375 13 2.4375C11.6561 2.4375 10.5625 3.53112 10.5625 4.875Z" fill="#FCF9F9"/>
</svg>
