<svg width="40" height="40" viewBox="0 0 40 40" fill="none" xmlns="http://www.w3.org/2000/svg">
<path d="M27.2124 32.3375C24.6738 32.2942 22.152 31.9159 19.7124 31.2125C16.5693 30.2578 13.2641 29.9558 9.99993 30.325C8.39939 30.5199 6.81286 30.8163 5.24993 31.2125C5.06544 31.2593 4.8727 31.2634 4.6864 31.2244C4.5001 31.1854 4.32516 31.1044 4.17493 30.9875C4.03509 30.8649 3.92437 30.7126 3.85085 30.5418C3.77732 30.3709 3.74285 30.1859 3.74993 30V10C3.74161 9.71446 3.83135 9.43468 4.0042 9.20724C4.17705 8.97981 4.42259 8.81844 4.69993 8.75C6.52321 8.29329 8.37855 7.97571 10.2499 7.8C13.6158 7.48213 17.0113 7.81744 20.2499 8.7875C23.2492 9.68843 26.395 9.99834 29.5124 9.7C31.2629 9.5134 32.9969 9.19585 34.6999 8.75C34.8844 8.70318 35.0772 8.69912 35.2635 8.73811C35.4498 8.7771 35.6247 8.85813 35.7749 8.975C35.929 9.09656 36.0523 9.2527 36.1348 9.43078C36.2174 9.60885 36.2568 9.80385 36.2499 10V30C36.2582 30.2855 36.1685 30.5653 35.9957 30.7928C35.8228 31.0202 35.5773 31.1816 35.2999 31.25C33.6313 31.6763 31.9358 31.9895 30.2249 32.1875C29.2244 32.2947 28.2186 32.3448 27.2124 32.3375ZM12.7874 27.6625C15.326 27.7058 17.8478 28.0841 20.2874 28.7875C23.4108 29.7337 26.6939 30.0356 29.9374 29.675C31.1992 29.5268 32.4513 29.3056 33.6874 29.0125V11.575C32.3877 11.8541 31.073 12.0586 29.7499 12.1875C26.3667 12.525 22.9501 12.2066 19.6874 11.25C16.7092 10.3508 13.5851 10.0366 10.4874 10.325C9.06184 10.452 7.64624 10.6733 6.24993 10.9875V28.4875C7.41438 28.236 8.59091 28.0441 9.77493 27.9125C10.7735 27.7718 11.7793 27.6884 12.7874 27.6625Z" fill="#FC6F27"/>
<path d="M5.4623 16.25H4.8998C4.5859 16.2248 4.29308 16.0821 4.07988 15.8503C3.86667 15.6186 3.74879 15.3149 3.7498 15V10C3.74148 9.71446 3.83121 9.43468 4.00407 9.20724C4.17692 8.97981 4.42245 8.81844 4.6998 8.75C6.52308 8.2933 8.37842 7.97571 10.2498 7.8C10.5498 7.77044 10.8504 7.85031 11.0962 8.02488C11.342 8.19946 11.5164 8.45698 11.5873 8.75C11.6744 9.16087 11.7163 9.58002 11.7123 10C11.7123 11.6576 11.0538 13.2473 9.88172 14.4194C8.70961 15.5915 7.1199 16.25 5.4623 16.25ZM6.2498 10.9875V13.6625C7.01462 13.4985 7.709 13.0994 8.23573 12.5211C8.76247 11.9428 9.09518 11.2143 9.1873 10.4375C8.2748 10.575 7.2998 10.75 6.2498 10.9875ZM34.5998 16.25C33.1568 16.2532 31.7572 15.757 30.6385 14.8456C29.5198 13.9342 28.7509 12.6638 28.4623 11.25C28.4279 11.0646 28.436 10.8739 28.4857 10.6921C28.5355 10.5102 28.6258 10.342 28.7498 10.2C28.853 10.0605 28.984 9.944 29.1347 9.85791C29.2853 9.77183 29.4522 9.71805 29.6248 9.7C31.3374 9.50791 33.0336 9.19039 34.6998 8.75C34.8843 8.70319 35.077 8.69912 35.2633 8.73811C35.4496 8.7771 35.6246 8.85813 35.7748 8.975C35.9289 9.09657 36.0522 9.25271 36.1347 9.43078C36.2172 9.60885 36.2567 9.80386 36.2498 10V15C36.2541 15.2978 36.152 15.5873 35.9618 15.8165C35.7716 16.0457 35.5058 16.1994 35.2123 16.25C35.0089 16.2751 34.8032 16.2751 34.5998 16.25ZM31.4248 12C31.9524 12.8346 32.7878 13.4275 33.7498 13.65V11.575C32.9498 11.7375 32.1748 11.8875 31.4248 12ZM4.9998 31.25C4.66828 31.25 4.35034 31.1183 4.11591 30.8839C3.88149 30.6495 3.7498 30.3315 3.7498 30V25C3.7498 24.6685 3.88149 24.3505 4.11591 24.1161C4.35034 23.8817 4.66828 23.75 4.9998 23.75C6.45868 23.7519 7.87094 24.2641 8.99187 25.1978C10.1128 26.1315 10.8718 27.428 11.1373 28.8625C11.169 29.0318 11.1653 29.2057 11.1266 29.3735C11.0879 29.5413 11.0149 29.6992 10.9123 29.8375C10.8093 29.9732 10.6797 30.0865 10.5314 30.1703C10.3831 30.2542 10.2192 30.3068 10.0498 30.325C8.44926 30.5199 6.86273 30.8163 5.2998 31.2125C5.20168 31.2371 5.10095 31.2497 4.9998 31.25ZM6.2498 26.4625V28.425C6.9248 28.2875 7.5748 28.1625 8.2123 28.0625C7.76342 27.3178 7.06968 26.7522 6.2498 26.4625ZM30.0873 32.1625C29.7983 32.1696 29.5159 32.0763 29.288 31.8985C29.0601 31.7207 28.9008 31.4695 28.8373 31.1875C28.7682 30.7956 28.7388 30.3978 28.7498 30C28.7498 28.3424 29.4083 26.7527 30.5804 25.5806C31.7525 24.4085 33.3422 23.75 34.9998 23.75C35.3313 23.75 35.6493 23.8817 35.8837 24.1161C36.1181 24.3505 36.2498 24.6685 36.2498 25V30C36.2581 30.2855 36.1684 30.5653 35.9955 30.7928C35.8227 31.0202 35.5771 31.1816 35.2998 31.25C33.6311 31.6763 31.9356 31.9895 30.2248 32.1875L30.0873 32.1625ZM33.7498 26.4625C33.0944 26.6866 32.5138 27.0879 32.0725 27.6219C31.6312 28.1558 31.3465 28.8016 31.2498 29.4875C32.0373 29.3625 32.8623 29.2125 33.7498 29.0125V26.4625ZM21.8748 25H17.4998C17.1683 25 16.8503 24.8683 16.6159 24.6339C16.3815 24.3995 16.2498 24.0815 16.2498 23.75C16.2498 23.4185 16.3815 23.1005 16.6159 22.8661C16.8503 22.6317 17.1683 22.5 17.4998 22.5H21.8748C22.0406 22.5 22.1995 22.4342 22.3167 22.3169C22.434 22.1997 22.4998 22.0408 22.4998 21.875C22.4998 21.7092 22.434 21.5503 22.3167 21.4331C22.1995 21.3158 22.0406 21.25 21.8748 21.25H18.1248C17.296 21.25 16.5011 20.9208 15.9151 20.3347C15.329 19.7487 14.9998 18.9538 14.9998 18.125C14.9998 17.2962 15.329 16.5013 15.9151 15.9153C16.5011 15.3292 17.296 15 18.1248 15H22.4998C22.8313 15 23.1493 15.1317 23.3837 15.3661C23.6181 15.6005 23.7498 15.9185 23.7498 16.25C23.7498 16.5815 23.6181 16.8995 23.3837 17.1339C23.1493 17.3683 22.8313 17.5 22.4998 17.5H18.1248C17.959 17.5 17.8001 17.5658 17.6829 17.6831C17.5656 17.8003 17.4998 17.9592 17.4998 18.125C17.4998 18.2908 17.5656 18.4497 17.6829 18.5669C17.8001 18.6842 17.959 18.75 18.1248 18.75H21.8748C22.7036 18.75 23.4985 19.0792 24.0845 19.6653C24.6706 20.2513 24.9998 21.0462 24.9998 21.875C24.9998 22.7038 24.6706 23.4987 24.0845 24.0847C23.4985 24.6708 22.7036 25 21.8748 25Z" fill="#FC6F27"/>
<path d="M20 17.5C19.6685 17.5 19.3505 17.3683 19.1161 17.1339C18.8817 16.8995 18.75 16.5815 18.75 16.25V15C18.75 14.6685 18.8817 14.3505 19.1161 14.1161C19.3505 13.8817 19.6685 13.75 20 13.75C20.3315 13.75 20.6495 13.8817 20.8839 14.1161C21.1183 14.3505 21.25 14.6685 21.25 15V16.25C21.25 16.5815 21.1183 16.8995 20.8839 17.1339C20.6495 17.3683 20.3315 17.5 20 17.5ZM20 26.25C19.6685 26.25 19.3505 26.1183 19.1161 25.8839C18.8817 25.6495 18.75 25.3315 18.75 25V23.75C18.75 23.4185 18.8817 23.1005 19.1161 22.8661C19.3505 22.6317 19.6685 22.5 20 22.5C20.3315 22.5 20.6495 22.6317 20.8839 22.8661C21.1183 23.1005 21.25 23.4185 21.25 23.75V25C21.25 25.3315 21.1183 25.6495 20.8839 25.8839C20.6495 26.1183 20.3315 26.25 20 26.25Z" fill="#FC6F27"/>
</svg>
