<svg data-name="015_HEALTH" viewBox="0 0 24 24" xmlns="http://www.w3.org/2000/svg"><path d="M12 20.5c-4.299 0-8.24-3.023-10.544-8.086a1 1 0 0 1 0-.828C3.759 6.523 7.701 3.5 12 3.5s8.24 3.023 10.544 8.086a1.001 1.001 0 0 1 0 .828 18.14 18.14 0 0 1-1.391 2.52 1 1 0 1 1-1.666-1.106A15.87 15.87 0 0 0 20.529 12C18.543 7.92 15.379 5.5 12 5.5S5.457 7.92 3.471 12c1.986 4.08 5.15 6.5 8.529 6.5a7.964 7.964 0 0 0 5.036-1.92 1 1 0 1 1 1.265 1.55A9.94 9.94 0 0 1 12 20.5Z" fill="#b7b7b7" class="fill-333333"></path><path d="M12 16a4.004 4.004 0 0 1-3.929-4.756 1 1 0 0 1 1.965.375A2 2 0 1 0 14 12a2.034 2.034 0 0 0-2.053-1.999 1.04 1.04 0 0 1-1.043-.947.963.963 0 0 1 .902-1.05L12 8a4 4 0 0 1 0 8Z" fill="#b7b7b7" class="fill-333333"></path></svg>