<svg width="32" height="32" viewBox="0 0 32 32" fill="none" xmlns="http://www.w3.org/2000/svg">
<path d="M16 29C13.4288 29 10.9154 28.2376 8.77759 26.8091C6.63975 25.3806 4.97351 23.3503 3.98957 20.9749C3.00563 18.5994 2.74819 15.9856 3.2498 13.4638C3.75141 10.9421 4.98953 8.62569 6.80762 6.80761C8.6257 4.98953 10.9421 3.7514 13.4638 3.24979C15.9856 2.74818 18.5995 3.00563 20.9749 3.98956C23.3503 4.9735 25.3807 6.63975 26.8091 8.77759C28.2376 10.9154 29 13.4288 29 16C29 19.4478 27.6304 22.7544 25.1924 25.1924C22.7544 27.6304 19.4478 29 16 29ZM16 5C13.8244 5 11.6977 5.64514 9.88873 6.85383C8.07979 8.06253 6.66989 9.78049 5.83733 11.7905C5.00477 13.8005 4.78693 16.0122 5.21137 18.146C5.63581 20.2798 6.68345 22.2398 8.22183 23.7782C9.76021 25.3166 11.7202 26.3642 13.854 26.7886C15.9878 27.2131 18.1995 26.9952 20.2095 26.1627C22.2195 25.3301 23.9375 23.9202 25.1462 22.1113C26.3549 20.3023 27 18.1756 27 16C27 13.0826 25.8411 10.2847 23.7782 8.22182C21.7153 6.15892 18.9174 5 16 5Z" fill="#FC6F27"/>
<path d="M11.7599 21.24C11.6283 21.2408 11.4979 21.2155 11.376 21.1658C11.2542 21.116 11.1434 21.0427 11.0499 20.95C10.8637 20.7626 10.7592 20.5092 10.7592 20.245C10.7592 19.9808 10.8637 19.7274 11.0499 19.54L19.5399 11.05C19.6325 10.9541 19.7431 10.8774 19.8653 10.8243C19.9875 10.7712 20.119 10.7426 20.2523 10.7403C20.3855 10.738 20.5179 10.7619 20.6419 10.8108C20.7659 10.8596 20.8791 10.9324 20.9749 11.025C21.0708 11.1176 21.1475 11.2281 21.2006 11.3504C21.2538 11.4726 21.2823 11.6041 21.2846 11.7373C21.287 11.8706 21.263 12.003 21.2142 12.127C21.1653 12.251 21.0925 12.3641 20.9999 12.46L12.4599 21C12.2659 21.1666 12.0154 21.2525 11.7599 21.24Z" fill="#FC6F27"/>
<path d="M20.24 21.24C19.9777 21.2389 19.7263 21.1347 19.54 20.95L11.05 12.46C10.8862 12.2687 10.8006 12.0226 10.8103 11.7709C10.82 11.5193 10.9244 11.2805 11.1025 11.1024C11.2806 10.9243 11.5193 10.82 11.771 10.8103C12.0227 10.8006 12.2687 10.8862 12.46 11.05L21 19.54C21.0999 19.6335 21.1796 19.7466 21.234 19.8722C21.2885 19.9977 21.3166 20.1331 21.3166 20.27C21.3166 20.4069 21.2885 20.5423 21.234 20.6678C21.1796 20.7934 21.0999 20.9065 21 21C20.8966 21.09 20.7757 21.1577 20.645 21.199C20.5142 21.2403 20.3764 21.2542 20.24 21.24Z" fill="#FC6F27"/>
</svg>
