<svg width="35" height="34" viewBox="0 0 35 34" fill="none" xmlns="http://www.w3.org/2000/svg">
<path d="M30.9939 28.5614L31.3629 28.2029L30.9941 27.8442L23.5719 20.6277C24.8922 18.875 25.6768 16.7046 25.6768 14.357C25.6768 8.48298 20.7843 3.75 14.7861 3.75C8.7807 3.75 3.89551 8.49004 3.89551 14.357C3.89551 20.2242 8.78775 24.9641 14.7861 24.9641C17.2169 24.9641 19.4606 24.1862 21.2729 22.8768L28.704 30.1083L29.0524 30.4474L29.4011 30.1086L30.9939 28.5614ZM14.7861 22.9016L14.7848 22.9016C12.4327 22.9079 10.2207 22.0148 8.55836 20.4C6.89736 18.7864 5.98926 16.6442 5.98926 14.3637C5.98926 12.0839 6.90361 9.94113 8.55905 8.32671C10.2145 6.71229 12.4335 5.8125 14.7861 5.8125C17.1392 5.8125 19.3516 6.70593 21.0139 8.32075C22.6749 9.93429 23.583 12.0765 23.583 14.357C23.583 16.6364 22.6689 18.779 21.0139 20.3933C19.3516 22.0081 17.1392 22.9016 14.7861 22.9016Z" fill="#FC6F27" stroke="#FC6F27"/>
</svg>
